<?xml version="1.0" standalone="no"?>
<svg xmlns="http://www.w3.org/2000/svg" viewBox="0 0 176 29" width="176" height="29"><path fill="#0b005d" fill-rule="nonzero" d="M11.21 12.94Q11.76 13.87 12.14 14.33Q12.53 14.78 13.04 15Q13.56 15.22 14.45 15.26L14.45 15.26Q14.45 15.96 14.35 16.30L14.35 16.30Q11.90 16.30 10.58 16.51L10.58 16.51Q9.67 15.05 8.98 13.68L8.98 13.68L8.69 13.15Q7.94 11.81 7.33 10.91Q6.72 10.01 5.71 8.93L5.71 8.93L4.97 8.95Q4.61 8.95 4.03 8.90L4.03 8.90L4.03 13.25Q4.03 14.45 4.36 14.87Q4.68 15.29 5.62 15.34L5.62 15.34Q5.74 15.70 5.74 16.37L5.74 16.37Q4.70 16.30 2.88 16.30L2.88 16.30Q1.08 16.30 0 16.37L0 16.37Q0 15.72 0.12 15.34L0.12 15.34Q1.10 15.29 1.44 14.87Q1.78 14.45 1.78 13.25L1.78 13.25L1.78 3.12Q1.78 1.92 1.43 1.48Q1.08 1.03 0.12 1.03L0.12 1.03Q0 0.65 0 0.02L0 0.02Q0.96 0.07 2.88 0.07L2.88 0.07Q4.20 0.07 4.87 0.05L4.87 0.05L6.89 0.02Q9.48 0.02 10.80 1.14Q12.12 2.26 12.12 4.06L12.12 4.06Q12.12 5.64 11.05 6.79Q9.98 7.94 8.09 8.42L8.09 8.42Q8.93 9.31 9.50 10.16Q10.08 11.02 11.21 12.94L11.21 12.94ZM4.03 7.80Q4.61 7.87 5.09 7.87L5.09 7.87Q7.18 7.87 8.47 6.97Q9.77 6.07 9.77 4.30L9.77 4.30Q9.77 2.78 8.82 1.93Q7.87 1.08 5.81 1.08L5.81 1.08Q4.94 1.08 4.03 1.27L4.03 1.27L4.03 7.80ZM26.69 12.89Q27.34 13.01 27.74 13.42L27.74 13.42Q27.31 14.54 27.10 16.32L27.10 16.32L22.46 16.30Q19.01 16.30 16.90 16.34L16.90 16.34Q16.90 15.60 17.02 15.26L17.02 15.26Q17.62 15.22 17.92 15.07Q18.22 14.93 18.34 14.54Q18.46 14.16 18.46 13.39L18.46 13.39L18.46 7.08Q18.46 6.38 18.32 6.02Q18.19 5.66 17.89 5.52Q17.59 5.38 17.02 5.33L17.02 5.33Q16.90 4.97 16.90 4.25L16.90 4.25Q18.62 4.30 20.66 4.30L20.66 4.30Q25.08 4.30 26.57 4.25L26.57 4.25Q26.83 6.50 27.02 7.22L27.02 7.22Q26.62 7.49 25.94 7.49L25.94 7.49Q25.85 6.48 25.12 5.90Q24.38 5.33 22.54 5.33L22.54 5.33L20.66 5.33L20.66 9.74L21.86 9.74Q23.14 9.74 23.63 9.46Q24.12 9.17 24.14 8.40L24.14 8.40Q24.67 8.23 25.25 8.23L25.25 8.23Q25.20 8.83 25.20 10.25L25.20 10.25Q25.20 11.78 25.25 12.34L25.25 12.34Q24.60 12.34 24.19 12.19L24.19 12.19Q24.12 11.40 23.63 11.11Q23.14 10.82 21.86 10.82L21.86 10.82L20.66 10.82L20.66 13.34Q20.66 14.11 20.82 14.51Q20.98 14.90 21.37 15.06Q21.77 15.22 22.56 15.22L22.56 15.22L22.70 15.22Q24.10 15.22 24.85 14.98Q25.61 14.74 25.98 14.27Q26.35 13.80 26.69 12.89L26.69 12.89ZM36.43 11.02Q37.70 11.02 38.51 10.39Q39.31 9.77 39.31 8.33L39.31 8.33Q39.31 6.96 38.46 6.16Q37.61 5.35 35.86 5.35L35.86 5.35Q35.40 5.35 34.80 5.50L34.80 5.50L34.80 13.22Q34.80 14.35 35.23 14.78Q35.66 15.22 36.72 15.26L36.72 15.26Q36.84 15.62 36.84 16.34L36.84 16.34Q35.50 16.30 34.06 16.30L34.06 16.30Q32.23 16.30 31.03 16.34L31.03 16.34Q31.03 15.60 31.15 15.26L31.15 15.26Q31.99 15.22 32.29 14.87Q32.59 14.52 32.59 13.49L32.59 13.49L32.59 7.08Q32.59 6.38 32.47 6.02Q32.35 5.66 32.05 5.52Q31.75 5.38 31.15 5.33L31.15 5.33Q31.03 4.97 31.03 4.25L31.03 4.25Q33.29 4.30 33.98 4.30L33.98 4.30L36.86 4.25Q39.34 4.25 40.49 5.28Q41.64 6.31 41.64 7.92L41.64 7.92Q41.64 9.07 41.09 10.03Q40.54 10.99 39.44 11.57Q38.35 12.14 36.82 12.14L36.82 12.14Q35.88 12.14 35.35 11.98L35.35 11.98Q35.30 11.64 35.30 11.47L35.30 11.47Q35.30 11.16 35.38 10.94L35.38 10.94Q35.74 11.02 36.43 11.02L36.43 11.02ZM56.54 15.26Q56.66 15.62 56.66 16.34L56.66 16.34Q55.70 16.30 54.19 16.30L54.19 16.30Q52.61 16.30 51.65 16.34L51.65 16.34Q51.65 15.60 51.79 15.26L51.79 15.26Q52.34 15.19 52.57 15.06Q52.80 14.93 52.80 14.66L52.80 14.66Q52.80 14.45 52.56 13.92L52.56 13.92L52.08 12.89Q48.62 12.89 46.63 13.01L46.63 13.01L46.37 13.63Q46.13 14.18 46.13 14.50L46.13 14.50Q46.13 15.17 47.11 15.26L47.11 15.26Q47.26 15.70 47.26 16.34L47.26 16.34Q46.34 16.30 45.26 16.30L45.26 16.30Q44.33 16.30 43.56 16.34L43.56 16.34Q43.56 15.77 43.70 15.26L43.70 15.26Q44.23 15.17 44.52 14.82Q44.81 14.47 45.29 13.42L45.29 13.42L49.42 4.27Q49.87 4.18 50.38 4.18L50.38 4.18L54.79 13.34Q55.32 14.45 55.69 14.83Q56.06 15.22 56.54 15.26L56.54 15.26ZM47.11 11.90L51.60 11.90L50.16 8.88Q49.54 7.61 49.30 6.86L49.30 6.86Q49.10 7.46 48.83 8.05Q48.55 8.64 48.48 8.78L48.48 8.78L47.11 11.90ZM69.41 13.49Q70.06 14.45 70.74 14.84Q71.42 15.24 72.43 15.29L72.43 15.29Q72.43 15.98 72.34 16.30L72.34 16.30Q70.30 16.30 68.88 16.46L68.88 16.46Q68.71 16.18 68.23 15.46L68.23 15.46L67.15 13.70Q66.26 12.22 64.80 11.28L64.80 11.28L64.03 11.30L63.34 11.28L63.34 13.46Q63.34 14.26 63.46 14.64Q63.58 15.02 63.85 15.17Q64.13 15.31 64.70 15.34L64.70 15.34Q64.80 15.62 64.80 16.34L64.80 16.34Q63.91 16.30 62.18 16.30L62.18 16.30Q60.91 16.30 59.57 16.34L59.57 16.34Q59.57 15.67 59.69 15.34L59.69 15.34Q60.29 15.29 60.59 15.14Q60.89 15 61.01 14.64Q61.13 14.28 61.13 13.56L61.13 13.56L61.13 7.06Q61.13 6.02 60.84 5.69Q60.55 5.35 59.69 5.30L59.69 5.30Q59.57 4.94 59.57 4.25L59.57 4.25Q60.48 4.30 62.21 4.30L62.21 4.30L63.94 4.27Q65.18 4.22 65.83 4.22L65.83 4.22Q68.14 4.22 69.31 5.11Q70.49 6 70.49 7.39L70.49 7.39Q70.49 8.78 69.60 9.68Q68.71 10.58 67.13 10.90L67.13 10.90Q67.73 11.26 68.12 11.72Q68.52 12.19 69.41 13.49L69.41 13.49ZM64.25 10.10Q65.98 10.10 67.08 9.49Q68.18 8.88 68.18 7.70L68.18 7.70Q68.18 5.26 64.82 5.26L64.82 5.26Q64.06 5.26 63.34 5.40L63.34 5.40L63.34 10.03Q63.84 10.10 64.25 10.10L64.25 10.10ZM85.66 4.25Q85.58 5.54 85.82 7.37L85.82 7.37Q85.32 7.58 84.65 7.58L84.65 7.58Q84.60 6.43 84.04 5.88Q83.47 5.33 82.27 5.33L82.27 5.33L81.22 5.33L81.22 13.56Q81.22 14.30 81.35 14.65Q81.48 15 81.83 15.14Q82.18 15.29 82.90 15.34L82.90 15.34Q83.02 15.62 83.02 16.34L83.02 16.34Q81.24 16.30 80.11 16.30L80.11 16.30Q78.72 16.30 77.14 16.34L77.14 16.34Q77.14 15.62 77.26 15.34L77.26 15.34Q77.98 15.29 78.35 15.14Q78.72 15 78.86 14.64Q79.01 14.28 79.01 13.56L79.01 13.56L79.01 5.33L78.02 5.33Q77.06 5.33 76.55 5.58Q76.03 5.83 75.79 6.29Q75.55 6.74 75.38 7.58L75.38 7.58Q74.62 7.58 74.26 7.37L74.26 7.37Q74.62 5.74 74.62 4.25L74.62 4.25Q75.86 4.30 80.11 4.30L80.11 4.30Q84.43 4.30 85.66 4.25L85.66 4.25ZM95.23 16.51Q93.17 16.51 91.58 15.74Q90 14.98 89.12 13.58Q88.25 12.19 88.25 10.34L88.25 10.34Q88.25 8.52 89.12 7.10Q90 5.69 91.60 4.91Q93.19 4.13 95.28 4.13L95.28 4.13Q97.34 4.13 98.93 4.90Q100.51 5.66 101.39 7.07Q102.26 8.47 102.26 10.30L102.26 10.30Q102.26 12.14 101.39 13.55Q100.51 14.95 98.92 15.73Q97.32 16.51 95.23 16.51L95.23 16.51ZM95.57 15.41Q97.51 15.41 98.65 14.11Q99.79 12.82 99.79 10.66L99.79 10.66Q99.79 9.10 99.17 7.86Q98.54 6.62 97.43 5.93Q96.31 5.23 94.92 5.23L94.92 5.23Q92.98 5.23 91.85 6.54Q90.72 7.85 90.72 9.98L90.72 9.98Q90.72 11.59 91.34 12.83Q91.97 14.06 93.07 14.74Q94.18 15.41 95.57 15.41L95.57 15.41ZM121.66 0L121.63 0.86Q121.63 1.82 121.80 3.84L121.80 3.84Q121.30 4.08 120.60 4.06L120.60 4.06Q120.55 2.62 119.90 1.87Q119.26 1.13 117.89 1.13L117.89 1.13L116.62 1.13L116.62 13.25Q116.62 14.09 116.76 14.51Q116.90 14.93 117.30 15.11Q117.70 15.29 118.49 15.34L118.49 15.34Q118.61 15.67 118.61 16.37L118.61 16.37Q117.07 16.30 115.46 16.30L115.46 16.30Q113.66 16.30 112.32 16.37L112.32 16.37Q112.32 15.67 112.44 15.34L112.44 15.34Q113.23 15.29 113.64 15.11Q114.05 14.93 114.20 14.50Q114.36 14.06 114.36 13.25L114.36 13.25L114.36 1.13L113.14 1.13Q112.03 1.13 111.43 1.48Q110.83 1.82 110.58 2.41Q110.33 3.00 110.14 4.06L110.14 4.06Q109.34 4.06 108.98 3.84L108.98 3.84Q109.37 1.68 109.37 0L109.37 0Q110.71 0.07 115.49 0.07L115.49 0.07Q120.34 0.07 121.66 0L121.66 0ZM124.92 3.12Q124.92 1.92 124.57 1.50Q124.22 1.08 123.26 1.03L123.26 1.03Q123.14 0.70 123.14 0L123.14 0Q124.46 0.07 126.05 0.07L126.05 0.07Q127.51 0.07 128.95 0L128.95 0Q128.95 0.70 128.83 1.03L128.83 1.03Q127.87 1.08 127.52 1.50Q127.18 1.92 127.18 3.12L127.18 3.12L127.18 13.25Q127.18 14.45 127.52 14.87Q127.87 15.29 128.83 15.34L128.83 15.34Q128.95 15.67 128.95 16.37L128.95 16.37Q127.51 16.30 126.05 16.30L126.05 16.30Q124.37 16.30 123.14 16.37L123.14 16.37Q123.14 15.67 123.26 15.34L123.26 15.34Q124.22 15.29 124.57 14.87Q124.92 14.45 124.92 13.25L124.92 13.25L124.92 3.12Z" transform="translate(0, 6.244)"></path><line x1="137.952" y1="2%" x2="137.952" y2="98%" stroke="#0b005d" stroke-linecap="round"></line><g fill="#305699" color="#305699" transform="translate(146.952 0) scale(0.5686275)"><svg width="51.0" height="51.0" x="0.0" y="0.0" viewBox="0 0 51 51"><path fill="currentColor" fill-rule="evenodd" d="M45.003 46.574c-.674.717-1.56 1.602-2.065 1.813-.295.126-.632.21-.927.042-.843-.464-.042-1.265-.042-1.265s.505-.632 1.053-1.517c1.35-1.98 1.35-4.257-1.559-1.813-4.13 3.541-8.978 5.648-10.958 6.365-.465.169-1.729.548-1.982-.042-.253-.506.885-1.011 1.35-1.18 1.39-.506 4.593-1.855 7.754-4.005.38-.252.085-.421-.295-.168-3.456 2.318-7.418 3.878-9.104 4.468-.421.169-1.517.506-1.854-.042-.338-.548.759-1.012 1.138-1.138 1.517-.548 5.352-2.066 8.683-4.258.252-.21.041-.463-.422-.21-2.614 1.813-5.395 2.95-6.828 3.456-.506.21-1.56.464-1.855-.084-.295-.506.717-.97 1.222-1.138 1.18-.421 3.414-1.391 5.648-2.782.169-.085.085-.548-.379-.253-1.56 1.011-2.908 1.602-2.993 1.644 0 0-1.011.421-1.517.084-.463-.337.295-.759.927-1.095.843-.38 9.569-4.974 8.894-11.634-.38-3.625-1.854-5.269-4.805-8.556l-8.81-8.81c-4.93 5.059-8.808 8.936-8.808 8.936-2.95 3.288-4.426 4.932-4.805 8.557-.675 6.66 8.05 11.253 8.893 11.633.632.295 1.433.758.927 1.095-.506.338-1.517-.083-1.517-.083-.127-.043-1.475-.633-2.993-1.645-.505-.295-.548.127-.379.253 2.234 1.392 4.468 2.318 5.648 2.782.506.211 1.517.633 1.222 1.138-.295.548-1.306.295-1.854.084-1.391-.505-4.173-1.643-6.828-3.455-.464-.295-.675-.043-.422.21 3.288 2.192 7.165 3.71 8.683 4.257.38.126 1.433.59 1.138 1.138-.337.548-1.433.211-1.855.042-1.644-.59-5.648-2.15-9.104-4.467-.38-.254-.674-.127-.295.168 3.161 2.15 6.322 3.499 7.755 4.004.464.169 1.602.675 1.35 1.18-.296.59-1.518.211-1.982.042-1.939-.716-6.786-2.865-10.958-6.364-2.909-2.487-2.909-.21-1.56 1.813.59.884 1.054 1.475 1.054 1.517 0 0 .8.8-.042 1.264-.295.17-.633.084-.928-.042-.505-.21-1.348-1.096-2.065-1.812-2.655-2.993-8.683-11.043-3.54-21.454 2.15-4.341 6.828-8.851 6.828-8.851l9.146-9.105L25.278 0l7.291 7.291 9.147 9.105s4.678 4.51 6.828 8.85c5.142 10.412-.885 18.462-3.54 21.328m-19.726-1.728S9.26 32.918 16.426 26.975c2.36-1.939 6.576-1.011 8.852.927 2.276-1.938 6.448-2.866 8.85-.927 7.166 5.943-8.85 17.871-8.85 17.871"></path></svg></g></svg>